# xmcd
#
# Track frame offsets:
#	150
#	13020
#	28244
#	40099
#	58073
#	72369
#	88949
#	105962
#	118990
#	135073
#	151177
#	163811
#	175765
#	193711
#
# Disc length: 2791 seconds
#
# Revision: 0
# Processed by: cddbd v1.5PL3 Copyright (c) Steve Scherf et al.
# Submitted via: dBpowerAMP V4.0
#
DISCID=b60ae50e
DTITLE=Mary Duff - Favourites
DYEAR=1900
DGENRE=Country
TTITLE0=Just Lovin' You
TTITLE1=Forever And Ever Amen
TTITLE2=The End Of The World
TTITLE3=Sunshine And Rain
TTITLE4=Just Out Of Reach
TTITLE5=Beautiful Meath
TTITLE6=Deep Water
TTITLE7=Pick Me Up On You Way Down
TTITLE8=Where Would That Leave Me
TTITLE9=There Won't Be Any Patches In Heaven
TTITLE10=Do Me With Love
TTITLE11=I'm Not That Lonely Yet
TTITLE12=Goin' Gone
TTITLE13=Dear God
EXTD=
EXTT0=
EXTT1=
EXTT2=
EXTT3=
EXTT4=
EXTT5=
EXTT6=
EXTT7=
EXTT8=
EXTT9=
EXTT10=
EXTT11=
EXTT12=
EXTT13=
PLAYORDER=
